<svg xmlns="http://www.w3.org/2000/svg" viewBox="0 0 314.5 153.37"><defs><style>.cls-1{fill:#ee7523;}.cls-2{fill:#595757;}</style></defs><title>logo</title><g id="Layer_2" data-name="Layer 2"><g id="Layer_2-2" data-name="Layer 2"><polygon class="cls-1" points="32.76 109.16 32.76 117.94 0 117.94 0 0 32.76 0 32.76 8.72 9.36 8.72 9.36 109.16 32.76 109.16"/><polygon class="cls-1" points="281.74 8.78 281.74 0 314.5 0 314.5 117.94 281.74 117.94 281.74 109.22 305.15 109.22 305.15 8.78 281.74 8.78"/><rect class="cls-1" x="30.87" y="39.73" width="9.57" height="38.48"/><path class="cls-1" d="M88.5,73.85l6,7.13-6.79,6.17-7.58-8.88a20,20,0,0,1-5.6.73C63,79,54.21,70.18,54.21,59s8.77-20,20.37-20S95,47.77,95,59A20,20,0,0,1,88.5,73.85M74.58,70.12c6.22,0,10.7-5.09,10.7-11.15S80.8,47.83,74.58,47.83,63.88,52.92,63.88,59s4.47,11.15,10.7,11.15"/><path class="cls-1" d="M115.64,71.59l-2.54,6.62H102.91l16.35-38.7h9.12l16.29,38.7H134.54l-2.6-6.62Zm8.15-20.93-5,12.79h10Z"/><path class="cls-1" d="M166.27,67.07V78.21h-9.56V39.74h16.86c9.5,0,15.9,5.2,15.9,13.52a12.93,12.93,0,0,1-7.36,11.94l9.91,13H180.47l-8.26-11.14Zm7.07-8.61c3.68,0,6.62-2,6.62-5.2s-2.94-5.09-6.62-5.09h-7.07V58.46Z"/><path class="cls-1" d="M237.83,60.28c0,11.93-6.9,18.78-17.93,18.78S202,72.21,202,60.28V39.74h9.62V60.45c0,5.88,3.23,9.67,8.27,9.67s8.31-3.79,8.31-9.67V39.74h9.62Z"/><path class="cls-1" d="M283.54,51.67h-9.62c-.51-2.88-2.32-4.86-6.22-4.86-3.29,0-5.5,1.36-5.5,3.84,0,2.1,1.53,3,4.42,3.63L272,55.52c7,1.53,11.6,4.36,11.6,11,0,7.69-6.33,12.5-15.95,12.5-8.66,0-16.47-4.07-17.37-13.58h9.56c.62,3.4,3.56,5.43,8.09,5.43,3.56,0,5.43-1.3,5.43-3.39,0-1.3-.79-2.66-4.07-3.28l-6.34-1.42c-7.58-1.64-11.14-5.2-11.14-11.31,0-7.7,6.22-12.56,15.27-12.56,6.22,0,15.51,2.43,16.47,12.78"/><polygon class="cls-2" points="5.53 138.33 0 138.33 0 136.61 12.95 136.61 12.95 138.33 7.42 138.33 7.42 153.09 5.53 153.09 5.53 138.33"/><polygon class="cls-2" points="17.6 136.61 19.46 136.61 19.46 143.93 28.97 143.93 28.97 136.61 30.83 136.61 30.83 153.09 28.97 153.09 28.97 145.67 19.46 145.67 19.46 153.09 17.6 153.09 17.6 136.61"/><polygon class="cls-2" points="36.66 136.61 48.57 136.61 48.57 138.31 38.52 138.31 38.52 143.93 47.51 143.93 47.51 145.63 38.52 145.63 38.52 151.39 48.69 151.39 48.69 153.09 36.66 153.09 36.66 136.61"/><path class="cls-2" d="M67.77,145.58c2.73,0,4.52-1.46,4.52-3.63v0c0-2.36-1.76-3.58-4.42-3.58H63.7v7.25Zm-5.93-9H68c3.72,0,6.16,2,6.16,5.23v0c0,3.56-3,5.39-6.47,5.39h-4v5.82H61.84Z"/><path class="cls-2" d="M92.88,144.9v-.05a6.55,6.55,0,0,0-6.49-6.8,6.47,6.47,0,0,0-6.45,6.75v0a6.55,6.55,0,0,0,6.49,6.8,6.47,6.47,0,0,0,6.45-6.75M78,144.9v-.05a8.4,8.4,0,1,1,16.8,0v0a8.4,8.4,0,1,1-16.8.05"/><polygon class="cls-2" points="97.8 136.61 99.82 136.61 104.53 150.33 109.05 136.56 110.58 136.56 115.1 150.33 119.81 136.61 121.76 136.61 115.87 153.21 114.3 153.21 109.78 139.84 105.24 153.21 103.68 153.21 97.8 136.61"/><polygon class="cls-2" points="126.3 136.61 138.21 136.61 138.21 138.31 128.16 138.31 128.16 143.93 137.15 143.93 137.15 145.63 128.16 145.63 128.16 151.39 138.32 151.39 138.32 153.09 126.3 153.09 126.3 136.61"/><path class="cls-2" d="M150.16,145c2.47,0,4.23-1.27,4.23-3.38v0c0-2-1.55-3.25-4.21-3.25H145.1V145Zm-6.92-8.4h7.08a6.49,6.49,0,0,1,4.69,1.65,4.55,4.55,0,0,1,1.27,3.25v0c0,2.73-1.89,4.34-4.48,4.81l5.07,6.73h-2.29l-4.78-6.4h-4.7v6.4h-1.86Z"/><path class="cls-2" d="M183.81,144.9v-.05a6.55,6.55,0,0,0-6.5-6.8,6.47,6.47,0,0,0-6.44,6.75v0a6.55,6.55,0,0,0,6.49,6.8,6.47,6.47,0,0,0,6.45-6.75m-14.88,0v-.05a8.35,8.35,0,0,1,8.43-8.52,8.27,8.27,0,0,1,8.38,8.47v0a8.41,8.41,0,1,1-16.81.05"/><polygon class="cls-2" points="190.84 136.61 202.68 136.61 202.68 138.33 192.7 138.33 192.7 144.21 201.62 144.21 201.62 145.91 192.7 145.91 192.7 153.09 190.84 153.09 190.84 136.61"/><polygon class="cls-2" points="215.69 136.61 217.55 136.61 217.55 143.93 227.06 143.93 227.06 136.61 228.92 136.61 228.92 153.09 227.06 153.09 227.06 145.67 217.55 145.67 217.55 153.09 215.69 153.09 215.69 136.61"/><polygon class="cls-2" points="234.75 136.61 246.66 136.61 246.66 138.31 236.61 138.31 236.61 143.93 245.6 143.93 245.6 145.63 236.61 145.63 236.61 151.39 246.78 151.39 246.78 153.09 234.75 153.09 234.75 136.61"/><path class="cls-2" d="M262.38,147.06l-3.74-8.4-3.77,8.4Zm-4.59-10.57h1.74l7.51,16.6h-2l-1.93-4.36h-9l-1.95,4.36h-1.91Z"/><polygon class="cls-2" points="271.46 136.61 273.32 136.61 273.32 151.37 282.59 151.37 282.59 153.09 271.46 153.09 271.46 136.61"/><polygon class="cls-2" points="289.2 138.33 283.67 138.33 283.67 136.61 296.62 136.61 296.62 138.33 291.09 138.33 291.09 153.09 289.2 153.09 289.2 138.33"/><polygon class="cls-2" points="301.28 136.61 303.13 136.61 303.13 143.93 312.64 143.93 312.64 136.61 314.5 136.61 314.5 153.09 312.64 153.09 312.64 145.67 303.13 145.67 303.13 153.09 301.28 153.09 301.28 136.61"/></g></g></svg>